<svg width="25" height="24" viewBox="0 0 25 24" fill="none" xmlns="http://www.w3.org/2000/svg">
  <path d="M3.45 8.95c.67-2.777 2.902-4.946 5.76-5.597 2.064-.47 4.212-.47 6.276 0 2.858.651 5.09 2.82 5.76 5.597a12.986 12.986 0 0 1 0 6.1c-.67 2.777-2.902 4.946-5.76 5.597-2.064.47-4.212.47-6.276 0-2.858-.651-5.09-2.82-5.76-5.597a12.988 12.988 0 0 1 0-6.1Z" stroke="#fff" stroke-width="1.5"/>
  <path d="M10.477 11.296a2.03 2.03 0 0 1 1.146-1.114l2.097-.815c.84-.327 1.674.483 1.338 1.3l-.839 2.037a2.03 2.03 0 0 1-1.146 1.114l-2.097.815c-.84.327-1.674-.483-1.338-1.3l.839-2.037Z" stroke="#fff" stroke-width="1.5" stroke-linecap="round" stroke-linejoin="round"/>
</svg>
