<svg width="26" height="24" viewBox="0 0 26 24" fill="none" xmlns="http://www.w3.org/2000/svg">
<path d="M10.6586 4.58646C11.5622 2.47118 14.5831 2.47118 15.4867 4.58646L16.1161 6.05983C16.4862 6.9261 17.2986 7.52663 18.241 7.63041L19.9974 7.82385C22.2155 8.06813 23.1316 10.7755 21.5116 12.2988L20.0204 13.7012C19.3647 14.3177 19.075 15.2258 19.2536 16.1045L19.6137 17.8758C20.0694 20.118 17.5978 21.8109 15.647 20.5927L14.4691 19.8572C13.6156 19.3242 12.5297 19.3242 11.6762 19.8572L10.4983 20.5927C8.54751 21.8109 6.07586 20.118 6.53162 17.8758L6.89167 16.1045C7.07029 15.2258 6.78057 14.3177 6.1249 13.7012L4.63363 12.2988C3.01367 10.7755 3.92981 8.06813 6.14792 7.82385L7.90431 7.63041C8.84664 7.52663 9.65911 6.9261 10.0292 6.05983L10.6586 4.58646Z" stroke="#fff" stroke-width="1.5" stroke-linecap="round" stroke-linejoin="round"/>
</svg>
