<svg width="25" height="24" viewBox="0 0 25 24" fill="none" xmlns="http://www.w3.org/2000/svg">
<path d="M5.17407 19.1115C5.17407 16.6984 6.8714 14.643 9.17811 14.2627L9.38589 14.2284C11.233 13.9239 13.1152 13.9239 14.9623 14.2284L15.17 14.2627C17.4767 14.643 19.1741 16.6984 19.1741 19.1115C19.1741 20.1545 18.3556 21 17.3459 21H7.0022C5.99255 21 5.17407 20.1545 5.17407 19.1115Z" stroke="#fff" stroke-width="1.5"/>
<path d="M16.2574 6.9375C16.2574 9.11212 14.4293 10.875 12.1741 10.875C9.91893 10.875 8.09076 9.11212 8.09076 6.9375C8.09076 4.76288 9.91893 3 12.1741 3C14.4293 3 16.2574 4.76288 16.2574 6.9375Z" stroke="#fff" stroke-width="1.5"/>
</svg>
