<svg width="26" height="24" viewBox="0 0 26 24" fill="none" xmlns="http://www.w3.org/2000/svg">
<path d="M9.91605 7L9.70902 7.47905C9.37479 8.25243 9.29078 9.10637 9.46817 9.92729C9.73883 11.1799 10.7649 12.1473 12.0614 12.3723L12.1756 12.3921C12.5868 12.4635 13.0077 12.4635 13.4188 12.3921L13.533 12.3723C14.8295 12.1473 15.8556 11.1799 16.1263 9.92729C16.3036 9.10637 16.2196 8.25243 15.8854 7.47905L15.6784 7" stroke="#302F3C" stroke-width="1.5" stroke-linecap="round"/>
<path d="M21.2565 15.143C20.6698 17.6504 18.6643 19.6204 16.0925 20.2251C13.9312 20.7334 11.6637 20.7334 9.50235 20.2251C6.93062 19.6204 4.92512 17.6504 4.33842 15.143C3.81421 12.9026 3.9417 10.5648 4.70662 8.39084L4.82026 8.06787C5.66192 5.67585 7.7645 3.91013 10.3219 3.44766L11.0222 3.32102C12.1956 3.10881 13.3993 3.10881 14.5728 3.32102L15.273 3.44766C17.8304 3.91013 19.933 5.67586 20.7747 8.06789L20.8883 8.39084C21.6532 10.5648 21.7807 12.9026 21.2565 15.143Z" stroke="#302F3C" stroke-width="1.5"/>
</svg>
